<svg width="65" height="50" viewBox="0 0 65 50" fill="none" xmlns="http://www.w3.org/2000/svg">
<path d="M35.8752 22.9628L28.3343 17.2043C27.394 16.4862 27.2791 15.1133 28.0871 14.249L34.3199 7.58126C34.9696 6.88626 36.0189 6.7451 36.8292 7.24371L62.1282 22.8123C63.3973 23.5933 63.3973 25.438 62.1282 26.219L36.7979 41.8068C36.0019 42.2967 34.9727 42.1699 34.3194 41.5014L28.122 35.1599C27.2952 34.3139 27.3793 32.9392 28.303 32.2003L35.9107 26.114C36.926 25.3018 36.9086 23.7519 35.8752 22.9628Z" fill="white"/>
<path d="M28.7932 43.5902L13.6784 25.6302C13.0397 24.8714 13.0537 23.7592 13.7112 23.0166L28.5786 6.22514C29.3751 5.32563 29.2043 3.93188 28.2143 3.25123L24.8803 0.959141C24.0751 0.405567 22.9878 0.514856 22.3089 1.2176L1.34911 22.9128C0.597647 23.6906 0.600668 24.9249 1.35593 25.6991L23.4202 48.3149C24.1532 49.0662 25.3423 49.1231 26.1436 48.445L28.5548 46.4048C29.3965 45.6926 29.5031 44.4337 28.7932 43.5902Z" fill="white"/>
</svg>
